<?xml version="1.0" encoding="UTF-8" standalone="no"?>
<!-- Created with Inkscape (http://www.inkscape.org/) -->

<svg
   version="1.1"
   id="svg99"
   width="1344"
   height="688"
   viewBox="0 0 1344 688"
   sodipodi:docname="Datawake-Guia-Marca.pdf - Google Chrome.jpg"
   inkscape:version="1.1 (c68e22c387, 2021-05-23)"
   xmlns:inkscape="http://www.inkscape.org/namespaces/inkscape"
   xmlns:sodipodi="http://sodipodi.sourceforge.net/DTD/sodipodi-0.dtd"
   xmlns="http://www.w3.org/2000/svg"
   xmlns:svg="http://www.w3.org/2000/svg">
  <defs
     id="defs103" />
  <sodipodi:namedview
     id="namedview101"
     pagecolor="#ffffff"
     bordercolor="#666666"
     borderopacity="1.0"
     inkscape:pageshadow="2"
     inkscape:pageopacity="0.0"
     inkscape:pagecheckerboard="0"
     showgrid="false"
     inkscape:zoom="0.56488008"
     inkscape:cx="925.86023"
     inkscape:cy="103.5618"
     inkscape:window-width="1920"
     inkscape:window-height="1009"
     inkscape:window-x="-8"
     inkscape:window-y="-8"
     inkscape:window-maximized="1"
     inkscape:current-layer="g105" />
  <g
     inkscape:groupmode="layer"
     inkscape:label="Image"
     id="g105">
    <path
       style="fill:#f5ca5c"
       d="m 194.99603,665.51263 c -13.12075,-0.55497 -14.30515,-0.77374 -18.85871,-3.48337 -2.67229,-1.59017 -6.07037,-4.56387 -7.55129,-6.60821 -1.48091,-2.04435 -8.3873,-16.71042 -15.34753,-32.59127 C 87.414072,472.64103 52.568842,392.14671 53.044672,391.3768 c 0.31317,-0.50672 8.53034,-0.9169 18.26038,-0.91153 28.765218,0.0159 29.850338,0.92574 45.725998,38.34059 51.86663,122.23632 74.42334,175.05828 75.43161,176.64128 0.61379,0.96365 1.26521,1.14063 1.84034,0.5 0.48963,-0.5454 5.8581,-12.69164 11.92992,-26.99164 6.07182,-14.3 23.73189,-55.925 39.24459,-92.5 36.16419,-85.26597 35.55328,-83.90069 39.32009,-87.87246 1.75914,-1.85485 5.44843,-4.43796 8.19843,-5.74023 4.5076,-2.1346 6.36728,-2.36873 18.88398,-2.37754 7.78029,-0.005 15.60958,0.50723 17.80918,1.16625 5.48337,1.64286 12.2442,7.9382 15.15338,14.11007 1.3517,2.86765 15.82635,36.71391 32.16589,75.21391 16.33954,38.5 34.9461,82.33763 41.34791,97.41695 6.40181,15.07932 12.14764,27.58615 12.76851,27.79295 1.12395,0.37437 6.50097,-11.97823 55.37375,-127.2099 33.11453,-78.07703 31.93177,-75.4613 36.23547,-80.13673 2.09431,-2.2752 6.04261,-5.0981 8.774,-6.27312 4.55001,-1.95736 6.45453,-2.1135 22.72705,-1.86327 16.32105,0.25098 17.73684,0.41593 17.46437,2.03476 -0.16308,0.9689 -6.74601,16.4939 -14.62873,34.5 -7.88273,18.0061 -26.80221,61.31336 -42.0433,96.23836 -56.06331,128.46924 -56.65281,129.78177 -60.09502,133.80322 -1.89468,2.21351 -5.57627,4.87102 -8.4765,6.11867 -4.6081,1.98235 -6.74937,2.1982 -21.15429,2.13241 -8.81496,-0.0403 -16.36516,-0.28207 -16.77822,-0.53735 -0.87042,-0.53795 -2.98884,-5.32877 -55.05935,-124.51695 -21.50525,-49.225 -39.52066,-89.9275 -40.03426,-90.45 -1.93556,-1.9691 2.29009,-11.29554 -71.56433,157.95 -13.44033,30.8 -25.18279,56.5625 -26.09436,57.25 -0.91156,0.6875 -2.80888,1.17109 -4.21626,1.07464 -1.40738,-0.0964 -8.85887,-0.44182 -16.55887,-0.76751 z m 327.75,-1.66836 c -0.6875,-0.30549 -1.25,-0.98603 -1.25,-1.51232 0,-1.03978 -0.67097,0.50526 65.71858,-151.32929 24.99932,-57.17407 46.51751,-106.05295 47.8182,-108.61974 2.67313,-5.27517 7.08669,-9.38124 12.96322,-12.06008 3.09665,-1.41162 6.48421,-1.82342 15,-1.82342 12.39577,0 17.36537,1.54669 23.33532,7.26266 4.25354,4.07258 4.19657,3.95917 18.6839,37.19342 6.7131,15.4 26.2732,60.175 43.4669,99.5 17.19369,39.325 32.5094,74.425 34.03491,78 1.52551,3.575 7.09485,16.36572 12.37631,28.42383 5.28146,12.0581 9.60266,22.51203 9.60266,23.23094 0,2.17107 -4.42259,2.62604 -20.83381,2.14325 -13.37895,-0.39359 -16.39618,-0.78496 -20.66619,-2.68067 -5.8326,-2.58944 -10.93346,-7.17589 -13.47641,-12.11735 -1.79788,-3.49364 -19.24915,-44.35394 -61.71537,-144.5 -12.36085,-29.15 -23.1538,-54.06061 -23.98434,-55.3569 -0.83054,-1.2963 -1.87284,-1.9713 -2.31622,-1.5 -0.44338,0.47129 -7.96979,17.7319 -16.72536,38.3569 -8.75557,20.625 -28.01889,66.00477 -42.80737,100.84393 -29.36927,69.18903 -29.73178,69.86934 -39.46173,74.05505 -4.3438,1.86865 -7.43565,2.23923 -21.78768,2.61146 -9.19904,0.23858 -17.28802,0.18383 -17.97552,-0.12167 z m 307,-0.0156 c -0.99125,-0.42809 -1.25,-28.77776 -1.25,-136.9565 V 390.4555 h 23.39301 c 19.5948,0 23.48405,0.23724 23.9537,1.46114 0.30839,0.80363 0.5607,24.66289 0.5607,53.02058 0,28.3577 0.27239,52.00018 0.60531,52.53886 0.3531,0.57132 7.08819,0.97942 16.16394,0.97942 h 15.55863 l 3.63652,-3.75 c 2.00008,-2.0625 18.25964,-20.1626 36.13243,-40.22244 52.07063,-58.44264 51.55643,-57.90457 58.44213,-61.16208 l 6.0537,-2.8639 23.8233,-7.9e-4 c 20.3386,-6.7e-4 23.7761,0.2122 23.5,1.45529 -0.1778,0.80084 -23.947,28.32891 -52.8204,61.17347 -28.87343,32.84457 -53.73873,61.27972 -55.25623,63.18923 -3.4601,4.35395 -4.9692,1.98004 20.7533,32.64581 54.60303,65.09627 94.49013,113.10701 94.49483,113.7401 0.012,1.58922 -8.2827,2.02453 -27.3901,1.43748 -23.0662,-0.70869 -27.019,-1.61403 -34.0436,-7.79729 -2.5024,-2.2027 -24.45553,-28.15641 -48.78463,-57.6749 -24.32924,-29.51849 -45.23629,-54.68248 -46.46025,-55.91998 -2.10378,-2.12705 -3.01573,-2.25 -16.68905,-2.25 -7.95501,0 -15.17547,0.27314 -16.04545,0.60699 -1.41768,0.54401 -1.58338,6.79489 -1.5971,60.25 -0.009,35.77899 -0.39417,60.24318 -0.96217,61.14301 -0.78756,1.24764 -4.61239,1.53474 -22.73469,1.70652 -11.98331,0.11358 -22.35033,-0.0364 -23.03783,-0.33334 z m 260.25007,-0.26149 -3,-0.63129 -0.274,-133.9902 c -0.1507,-73.69461 -0.03,-135.0027 0.269,-136.2402 l 0.5431,-2.25 h 100.981 100.9809 v 21 21 h -75.5657 c -50.1771,0 -76.2157,0.3478 -77.5,1.03518 -1.8909,1.01198 -1.9343,3.10394 -1.9343,93.3 0,70.42819 0.284,92.54883 1.2,93.46482 0.9126,0.91263 19.7111,1.2 78.5,1.2 h 77.3 v 20.89159 20.89159 l -2.344,0.58831 c -3.1555,0.79199 -195.3491,0.54127 -199.156,-0.2598 z m 93.6014,-123.48957 c -0.7961,-0.95924 -1.0612,-7.5676 -0.8725,-21.75 l 0.2711,-20.37211 22.8745,-0.26909 c 16.0328,-0.18861 23.286,0.0723 24.25,0.87244 1.8583,1.54219 2.0195,39.85268 0.1755,41.69665 -1.8533,1.85326 -45.1498,1.68834 -46.6986,-0.17788 z M 51.223912,344.85005 c -0.40033,-0.40034 -0.72788,-52.08788 -0.72788,-114.86122 0,-87.43703 0.28068,-114.41402 1.2,-115.33333 0.86316,-0.86316 7.6,-1.2 24,-1.2 h 22.8 V 92.655499 c 0,-14.84445 0.34359,-21.14359 1.2,-22 1.539658,-1.53967 52.407678,-1.65965 68.299998,-0.1611 22.20746,2.09403 39.02644,6.63845 57,15.40118 26.76038,13.04661 49.05905,35.152931 61.4889,60.958471 21.80086,45.26065 16.77047,102.39624 -12.47285,141.66758 -3.50831,4.71137 -10.60034,12.602 -15.76007,17.53473 -19.64676,18.78242 -42.4868,30.31398 -72.38613,36.54655 -10.48279,2.18515 -13.06059,2.27847 -72.39197,2.62043 -33.837158,0.19503 -61.849658,0.0271 -62.249998,-0.37329 z M 164.99603,299.46684 c 13.32466,-1.41241 23.79561,-4.38759 35,-9.94478 17.52925,-8.69422 29.91499,-20.92136 38.05384,-37.56656 6.44733,-13.18576 8.57423,-22.28648 9.18673,-39.30877 0.58696,-16.31228 -0.55488,-25.5167 -4.69904,-37.87909 -7.50541,-22.38933 -23.48084,-40.14306 -45.19801,-50.22923 -16.8372,-7.81975 -20.77374,-8.38929 -61.09352,-8.83903 l -35.75,-0.39876 v 91.91077 c 0,50.55093 0.3,92.21078 0.66667,92.57744 1.02283,1.02284 53.65071,0.75737 63.83333,-0.32199 z m 125.5,44.25199 c 0,-0.95517 25.69454,-60.53635 57.09899,-132.40263 62.38645,-142.765851 58.89728,-135.711571 69.73849,-140.994921 3.96081,-1.93026 6.31802,-2.27927 15.66252,-2.31901 10.07527,-0.0428 11.47952,0.1887 16.7041,2.75432 6.03278,2.96249 9.67068,6.57297 12.79644,12.69997 5.04453,9.8881 112.99946,258.303351 112.99946,260.023231 0,1.89572 -0.74175,1.97571 -18.32186,1.97571 -14.05114,0 -19.39938,-0.36715 -22.94453,-1.5751 -5.5768,-1.90021 -13.13801,-8.32423 -15.65048,-13.29669 -1.00829,-1.99551 -17.68218,-40.97821 -37.0531,-86.62821 -47.08957,-110.97249 -48.16013,-113.46237 -49.01107,-113.98828 -0.40642,-0.25118 -19.31253,43.29343 -42.01359,96.76579 -22.70106,53.47237 -42.43448,99.63074 -43.85205,102.57415 -1.41757,2.94341 -4.53194,7.07212 -6.92083,9.1749 -6.90628,6.07915 -10.93445,6.97344 -31.41063,6.97344 -16.25442,0 -17.82186,-0.15274 -17.82186,-1.73667 z m 339.46577,0.48667 c -0.2593,-0.6875 -0.58267,-52.1 -0.71861,-114.25 l -0.24716,-113 -43,-0.52691 c -23.65,-0.2898 -43.1125,-0.6273 -43.25,-0.75 -0.1375,-0.1227 -0.25,-10.29995 -0.25,-22.616101 0,-19.49701 0.20457,-22.47151 1.58179,-23 0.86998,-0.33385 50.72998,-0.60699 110.8,-0.60699 83.61416,0 109.49953,0.28131 110.41821,1.2 0.85809,0.85809 1.2,7.25885 1.2,22.46481 0,20.000451 -0.11501,21.326371 -1.93426,22.300011 -1.24434,0.66595 -16.76003,1.03518 -43.5,1.03518 h -41.56574 v 112.91821 c 0,62.10502 -0.27314,113.63002 -0.60699,114.5 -0.53009,1.38139 -3.63795,1.58179 -24.53138,1.58179 -18.22141,0 -24.03678,-0.29797 -24.39586,-1.25 z m 103.02033,0.0744 c -0.5024,-1.30926 110.91015,-257.493641 114.51768,-263.324401 2.85956,-4.62184 7.01175,-8.17102 12.49622,-10.68143 4.1992,-1.92211 6.68168,-2.28866 15.5,-2.28866 8.8136,0 11.30305,0.36719 15.5,2.28627 5.62259,2.57095 10.90803,7.22649 13.2199,11.64442 4.99468,9.54466 114.22867,261.231231 113.82877,262.273381 -0.6014,1.5671 -34.09343,1.79804 -39.58313,0.27294 -5.5334,-1.53724 -12.612,-6.5157 -15.5267,-10.92003 -1.4631,-2.21101 -21.7185,-48.86813 -45.01196,-103.68248 -23.29338,-54.81436 -42.55708,-99.86794 -42.80822,-100.11908 -0.7346,-0.73461 -0.57436,-1.1027 -43.62809,100.21467 -22.67052,53.35 -42.02956,98.575 -43.02011,100.5 -2.17999,4.23654 -8.20298,10.10599 -12.97046,12.63982 -2.98824,1.58819 -6.31496,1.90792 -22.75203,2.18667 -15.31774,0.25977 -19.35622,0.055 -19.76187,-1.00211 z M 2.6960291,70.255499 c -1.69746901,-1.69747 -1.69746901,-41.90253 0,-43.6 1.703387,-1.70339 46.8966129,-1.70339 48.6000029,0 1.69747,1.69747 1.69747,41.90253 0,43.6 -1.70339,1.70338 -46.8966159,1.70338 -48.6000029,0 z"
       id="path301" />
    <path
       style="fill:#a0a0a0"
       d="m 178.99603,662.06819 c -9.97374,-4.72311 -7.45208,0.0281 -41.98806,-79.11269 -8.64046,-19.8 -17.29126,-39.6 -19.22401,-44 -1.93275,-4.4 -7.91687,-18.125 -13.29803,-30.5 -5.381168,-12.375 -18.830288,-43.14084 -29.886918,-68.36852 -11.05664,-25.22769 -20.10298,-46.52593 -20.10298,-47.32942 0,-1.23987 2.76123,-1.41106 18.25,-1.13148 17.74357,0.32028 18.37747,0.40436 22.84352,3.02987 2.52643,1.48524 5.748118,4.21422 7.159308,6.06439 1.41119,1.85016 8.85407,18.18496 16.53972,36.29955 7.68565,18.11458 26.89986,63.31061 42.69825,100.43561 15.79838,37.125 28.94908,68.0625 29.22376,68.75 0.27468,0.6875 1.30274,1.25 2.28459,1.25 1.392,0 4.71167,-6.88249 15.07294,-31.25 25.96571,-61.06581 42.79387,-100.72839 58.00978,-136.72421 13.71832,-32.45302 15.88789,-36.93694 19.67913,-40.67149 6.71971,-6.61924 10.3715,-7.55846 27.91201,-7.17882 14.69395,0.31802 15.09229,0.38522 19.89174,3.35564 2.69364,1.66711 5.86058,4.46019 7.03764,6.20684 1.17707,1.74664 8.22555,17.48264 15.66329,34.96888 14.21796,33.42661 35.09767,82.56866 58.54622,137.79316 10.74024,25.29471 14.45014,33.06815 15.88868,33.29186 1.90848,0.29679 3.2033,-2.62097 46.28192,-104.29186 33.32492,-78.65097 42.56914,-99.71355 45.12384,-102.81284 1.58978,-1.92868 5.22958,-4.6723 8.08843,-6.09693 4.99059,-2.48692 5.88809,-2.59023 22.50157,-2.59023 13.19069,0 17.29723,0.29712 17.27661,1.25 -0.0293,1.35531 0.0761,1.10727 -17.95931,42.25 -6.75078,15.4 -15.30615,34.975 -19.01194,43.5 -69.95455,160.92714 -76.02437,174.36783 -80.90645,179.15496 -2.84539,2.79005 -6.31935,5.09143 -8.67127,5.74442 -2.15819,0.59921 -10.93009,1.09198 -19.49311,1.09504 l -15.56913,0.006 -14.29508,-32.75 c -63.93863,-146.48329 -79.4917,-181.91077 -80.33909,-183 -0.53485,-0.6875 -1.50989,-1.25 -2.16676,-1.25 -0.65686,0 -11.47205,23.5125 -24.03375,52.25 -12.5617,28.7375 -24.72807,56.525 -27.03638,61.75 -2.3083,5.225 -13.11256,29.975 -24.00946,55 -10.8969,25.025 -20.24309,46.0625 -20.76933,46.75 -0.69396,0.90664 -5.24949,1.24732 -16.58433,1.24023 -14.3509,-0.009 -16.03602,-0.2032 -20.62756,-2.37754 z m 860.50007,0.43393 c -30.6181,-0.77844 -27.1798,1.31694 -56.68833,-34.54662 -5.4305,-6.6 -16.2722,-19.7625 -24.0926,-29.25 -7.8205,-9.4875 -20.598,-25.0125 -28.39445,-34.5 -7.79643,-9.4875 -15.76275,-18.9375 -17.70295,-21 l -3.52764,-3.75 -15.54705,0.0153 c -8.55088,0.008 -16.22205,0.44187 -17.04705,0.96321 -1.30138,0.82238 -1.53611,8.96361 -1.7727,61.48468 l -0.2727,60.53681 h -22.4773 -22.4773 v -135.5 -135.5 h 22.4744 22.47439 l 0.27561,53.03688 c 0.23826,45.85184 0.47881,53.16528 1.7756,53.98468 0.825,0.5213 8.55506,0.95471 17.17791,0.96313 l 15.6779,0.0153 9.8221,-10.75923 c 12.00677,-13.15236 65.26973,-72.70218 74.55273,-83.35267 4.9147,-5.63858 8.28733,-8.48644 12.50003,-10.55508 l 5.7694,-2.83301 23.9153,-0.3016 c 27.0391,-0.341 25.1448,-1.2096 17.1152,7.84801 -2.2168,2.50052 -8.0805,9.21034 -13.0305,14.91069 -4.95,5.70036 -12.825,14.70001 -17.5,19.99922 -56.64473,64.20804 -74.00003,84.26356 -74.00003,85.5136 0,0.74623 5.9707,8.48327 13.2681,17.19343 34.3117,40.9543 99.51443,119.14543 101.53363,121.75927 1.7376,2.24934 1.9629,3.1097 0.978,3.73469 -0.7038,0.44664 -1.7297,0.72744 -2.2797,0.624 -0.55,-0.10344 -10.675,-0.43405 -22.5,-0.73469 z M 522.77838,661.2055 c 0.57357,-1.44456 51.89668,-118.86619 67.20165,-153.75 5.67073,-12.925 18.52049,-42.30317 28.55502,-65.28483 17.42963,-39.91834 18.45926,-41.97782 23.04994,-46.10524 6.25634,-5.62499 10.97447,-6.88769 24.11791,-6.45458 9.59491,0.31617 10.86403,0.59523 15.35986,3.37738 5.96528,3.69149 8.68137,7.69866 14.88953,21.96727 2.63231,6.05 7.81838,17.975 11.52459,26.5 3.70622,8.525 24.74817,56.675 46.75989,107 48.63211,111.18669 49.25926,112.63034 49.25926,113.39072 0,0.3351 -7.9875,0.58953 -17.75,0.56539 -19.5502,-0.0483 -22.5549,-0.65349 -29.13967,-5.86873 -4.83015,-3.82555 -5.91681,-6.00756 -22.45385,-45.08738 -15.03347,-35.52662 -37.17815,-87.73087 -51.11527,-120.5 -5.61412,-13.2 -12.16076,-28.6125 -14.5481,-34.25 -3.1007,-7.32207 -4.82996,-10.25 -6.05374,-10.25 -1.27164,0 -3.77865,4.83215 -9.72787,18.75 -8.25516,19.31247 -31.26697,73.4474 -56.21716,132.25 -7.8178,18.425 -15.83856,37.325 -17.8239,42 -5.8645,13.8095 -10.05248,18.78104 -18.48554,21.94411 -4.24251,1.59128 -38.04181,1.41587 -37.40255,-0.19411 z m 565.32472,-0.33179 c -0.7934,-2.06763 -0.7934,-265.76879 0,-267.83642 0.5479,-1.42778 10.3331,-1.58179 100.5,-1.58179 h 99.893 v 20 20 h -75.5657 c -50.1771,0 -76.2157,0.3478 -77.5,1.03518 -1.8912,1.0121 -1.9343,3.11527 -1.9343,94.3 0,71.20597 0.2838,93.54864 1.2,94.46482 0.9126,0.91263 19.7111,1.2 78.5,1.2 h 77.3 v 20 20 h -100.893 c -91.0788,0 -100.9521,-0.15387 -101.5,-1.58179 z m 95.8393,-121.69768 c -0.2701,-0.70371 -0.3685,-10.04121 -0.2187,-20.75 l 0.2724,-19.47053 21.8736,-0.26985 c 15.2927,-0.18866 22.2877,0.0738 23.25,0.87245 1.8563,1.54058 2.0177,37.85614 0.1764,39.6974 -1.7774,1.77744 -44.67,1.70228 -45.3537,-0.0795 z M 51.223912,344.85005 c -0.40033,-0.40034 -0.72788,-52.08788 -0.72788,-114.86122 0,-87.43703 0.28068,-114.41402 1.2,-115.33333 0.86316,-0.86316 7.6,-1.2 24,-1.2 h 22.8 V 92.655499 c 0,-14.84445 0.34359,-21.14359 1.2,-22 1.539658,-1.53967 52.407678,-1.65965 68.299998,-0.1611 22.20746,2.09403 39.02644,6.63845 57,15.40118 26.76038,13.04661 49.05905,35.152931 61.4889,60.958471 21.80086,45.26065 16.77047,102.39624 -12.47285,141.66758 -3.50831,4.71137 -10.60034,12.602 -15.76007,17.53473 -19.64676,18.78242 -42.4868,30.31398 -72.38613,36.54655 -10.48279,2.18515 -13.06059,2.27847 -72.39197,2.62043 -33.837158,0.19503 -61.849658,0.0271 -62.249998,-0.37329 z M 164.99603,299.46684 c 13.32466,-1.41241 23.79561,-4.38759 35,-9.94478 17.52925,-8.69422 29.91499,-20.92136 38.05384,-37.56656 6.44733,-13.18576 8.57423,-22.28648 9.18673,-39.30877 0.58696,-16.31228 -0.55488,-25.5167 -4.69904,-37.87909 -7.50541,-22.38933 -23.48084,-40.14306 -45.19801,-50.22923 -16.8372,-7.81975 -20.77374,-8.38929 -61.09352,-8.83903 l -35.75,-0.39876 v 91.91077 c 0,50.55093 0.3,92.21078 0.66667,92.57744 1.02283,1.02284 53.65071,0.75737 63.83333,-0.32199 z m 125.5,44.25199 c 0,-0.95517 25.69454,-60.53635 57.09899,-132.40263 62.38645,-142.765851 58.89728,-135.711571 69.73849,-140.994921 3.96081,-1.93026 6.31802,-2.27927 15.66252,-2.31901 10.07527,-0.0428 11.47952,0.1887 16.7041,2.75432 6.03278,2.96249 9.67068,6.57297 12.79644,12.69997 5.04453,9.8881 112.99946,258.303351 112.99946,260.023231 0,1.89572 -0.74175,1.97571 -18.32186,1.97571 -14.05114,0 -19.39938,-0.36715 -22.94453,-1.5751 -5.5768,-1.90021 -13.13801,-8.32423 -15.65048,-13.29669 -1.00829,-1.99551 -17.68218,-40.97821 -37.0531,-86.62821 -47.08957,-110.97249 -48.16013,-113.46237 -49.01107,-113.98828 -0.40642,-0.25118 -19.31253,43.29343 -42.01359,96.76579 -22.70106,53.47237 -42.43448,99.63074 -43.85205,102.57415 -1.41757,2.94341 -4.53194,7.07212 -6.92083,9.1749 -6.90628,6.07915 -10.93445,6.97344 -31.41063,6.97344 -16.25442,0 -17.82186,-0.15274 -17.82186,-1.73667 z m 339.46577,0.48667 c -0.2593,-0.6875 -0.58267,-52.1 -0.71861,-114.25 l -0.24716,-113 -43,-0.52691 c -23.65,-0.2898 -43.1125,-0.6273 -43.25,-0.75 -0.1375,-0.1227 -0.25,-10.29995 -0.25,-22.616101 0,-19.49701 0.20457,-22.47151 1.58179,-23 0.86998,-0.33385 50.72998,-0.60699 110.8,-0.60699 83.61416,0 109.49953,0.28131 110.41821,1.2 0.85809,0.85809 1.2,7.25885 1.2,22.46481 0,20.000451 -0.11501,21.326371 -1.93426,22.300011 -1.24434,0.66595 -16.76003,1.03518 -43.5,1.03518 h -41.56574 v 112.91821 c 0,62.10502 -0.27314,113.63002 -0.60699,114.5 -0.53009,1.38139 -3.63795,1.58179 -24.53138,1.58179 -18.22141,0 -24.03678,-0.29797 -24.39586,-1.25 z m 103.02033,0.0744 c -0.5024,-1.30926 110.91015,-257.493641 114.51768,-263.324401 2.85956,-4.62184 7.01175,-8.17102 12.49622,-10.68143 4.1992,-1.92211 6.68168,-2.28866 15.5,-2.28866 8.8136,0 11.30305,0.36719 15.5,2.28627 5.62259,2.57095 10.90803,7.22649 13.2199,11.64442 4.99468,9.54466 114.22867,261.231231 113.82877,262.273381 -0.6014,1.5671 -34.09343,1.79804 -39.58313,0.27294 -5.5334,-1.53724 -12.612,-6.5157 -15.5267,-10.92003 -1.4631,-2.21101 -21.7185,-48.86813 -45.01196,-103.68248 -23.29338,-54.81436 -42.55708,-99.86794 -42.80822,-100.11908 -0.7346,-0.73461 -0.57436,-1.1027 -43.62809,100.21467 -22.67052,53.35 -42.02956,98.575 -43.02011,100.5 -2.17999,4.23654 -8.20298,10.10599 -12.97046,12.63982 -2.98824,1.58819 -6.31496,1.90792 -22.75203,2.18667 -15.31774,0.25977 -19.35622,0.055 -19.76187,-1.00211 z M 2.6960291,70.255499 c -1.69746901,-1.69747 -1.69746901,-41.90253 0,-43.6 1.703387,-1.70339 46.8966129,-1.70339 48.6000029,0 1.69747,1.69747 1.69747,41.90253 0,43.6 -1.70339,1.70338 -46.8966159,1.70338 -48.6000029,0 z"
       id="path299" />
    <path
       style="fill:#f6ba29"
       d="m 178.99603,662.06819 c -9.97374,-4.72311 -7.45208,0.0281 -41.98806,-79.11269 -8.64046,-19.8 -17.29126,-39.6 -19.22401,-44 -1.93275,-4.4 -7.91687,-18.125 -13.29803,-30.5 -5.381168,-12.375 -18.830288,-43.14084 -29.886918,-68.36852 -11.05664,-25.22769 -20.10298,-46.52593 -20.10298,-47.32942 0,-1.23987 2.76123,-1.41106 18.25,-1.13148 17.74357,0.32028 18.37747,0.40436 22.84352,3.02987 2.52643,1.48524 5.748118,4.21422 7.159308,6.06439 1.41119,1.85016 8.85407,18.18496 16.53972,36.29955 7.68565,18.11458 26.89986,63.31061 42.69825,100.43561 15.79838,37.125 28.94908,68.0625 29.22376,68.75 0.27468,0.6875 1.30274,1.25 2.28459,1.25 1.392,0 4.71167,-6.88249 15.07294,-31.25 25.96571,-61.06581 42.79387,-100.72839 58.00978,-136.72421 13.71832,-32.45302 15.88789,-36.93694 19.67913,-40.67149 6.71971,-6.61924 10.3715,-7.55846 27.91201,-7.17882 14.69395,0.31802 15.09229,0.38522 19.89174,3.35564 2.69364,1.66711 5.86058,4.46019 7.03764,6.20684 1.17707,1.74664 8.22555,17.48264 15.66329,34.96888 14.21796,33.42661 35.09767,82.56866 58.54622,137.79316 10.74024,25.29471 14.45014,33.06815 15.88868,33.29186 1.90848,0.29679 3.2033,-2.62097 46.28192,-104.29186 33.32492,-78.65097 42.56914,-99.71355 45.12384,-102.81284 1.58978,-1.92868 5.22958,-4.6723 8.08843,-6.09693 4.99059,-2.48692 5.88809,-2.59023 22.50157,-2.59023 13.19069,0 17.29723,0.29712 17.27661,1.25 -0.0293,1.35531 0.0761,1.10727 -17.95931,42.25 -6.75078,15.4 -15.30615,34.975 -19.01194,43.5 -69.95455,160.92714 -76.02437,174.36783 -80.90645,179.15496 -2.84539,2.79005 -6.31935,5.09143 -8.67127,5.74442 -2.15819,0.59921 -10.93009,1.09198 -19.49311,1.09504 l -15.56913,0.006 -14.29508,-32.75 c -63.93863,-146.48329 -79.4917,-181.91077 -80.33909,-183 -0.53485,-0.6875 -1.50989,-1.25 -2.16676,-1.25 -0.65686,0 -11.47205,23.5125 -24.03375,52.25 -12.5617,28.7375 -24.72807,56.525 -27.03638,61.75 -2.3083,5.225 -13.11256,29.975 -24.00946,55 -10.8969,25.025 -20.24309,46.0625 -20.76933,46.75 -0.69396,0.90664 -5.24949,1.24732 -16.58433,1.24023 -14.3509,-0.009 -16.03602,-0.2032 -20.62756,-2.37754 z m 860.50007,0.43393 c -30.6181,-0.77844 -27.1798,1.31694 -56.68833,-34.54662 -5.4305,-6.6 -16.2722,-19.7625 -24.0926,-29.25 -7.8205,-9.4875 -20.598,-25.0125 -28.39445,-34.5 -7.79643,-9.4875 -15.76275,-18.9375 -17.70295,-21 l -3.52764,-3.75 -15.54705,0.0153 c -8.55088,0.008 -16.22205,0.44187 -17.04705,0.96321 -1.30138,0.82238 -1.53611,8.96361 -1.7727,61.48468 l -0.2727,60.53681 h -22.4773 -22.4773 v -135.5 -135.5 h 22.4744 22.47439 l 0.27561,53.03688 c 0.23826,45.85184 0.47881,53.16528 1.7756,53.98468 0.825,0.5213 8.55506,0.95471 17.17791,0.96313 l 15.6779,0.0153 9.8221,-10.75923 c 12.00677,-13.15236 65.26973,-72.70218 74.55273,-83.35267 4.9147,-5.63858 8.28733,-8.48644 12.50003,-10.55508 l 5.7694,-2.83301 23.9153,-0.3016 c 27.0391,-0.341 25.1448,-1.2096 17.1152,7.84801 -2.2168,2.50052 -8.0805,9.21034 -13.0305,14.91069 -4.95,5.70036 -12.825,14.70001 -17.5,19.99922 -56.64473,64.20804 -74.00003,84.26356 -74.00003,85.5136 0,0.74623 5.9707,8.48327 13.2681,17.19343 34.3117,40.9543 99.51443,119.14543 101.53363,121.75927 1.7376,2.24934 1.9629,3.1097 0.978,3.73469 -0.7038,0.44664 -1.7297,0.72744 -2.2797,0.624 -0.55,-0.10344 -10.675,-0.43405 -22.5,-0.73469 z M 522.77838,661.2055 c 0.57357,-1.44456 51.89668,-118.86619 67.20165,-153.75 5.67073,-12.925 18.52049,-42.30317 28.55502,-65.28483 17.42963,-39.91834 18.45926,-41.97782 23.04994,-46.10524 6.25634,-5.62499 10.97447,-6.88769 24.11791,-6.45458 9.59491,0.31617 10.86403,0.59523 15.35986,3.37738 5.96528,3.69149 8.68137,7.69866 14.88953,21.96727 2.63231,6.05 7.81838,17.975 11.52459,26.5 3.70622,8.525 24.74817,56.675 46.75989,107 48.63211,111.18669 49.25926,112.63034 49.25926,113.39072 0,0.3351 -7.9875,0.58953 -17.75,0.56539 -19.5502,-0.0483 -22.5549,-0.65349 -29.13967,-5.86873 -4.83015,-3.82555 -5.91681,-6.00756 -22.45385,-45.08738 -15.03347,-35.52662 -37.17815,-87.73087 -51.11527,-120.5 -5.61412,-13.2 -12.16076,-28.6125 -14.5481,-34.25 -3.1007,-7.32207 -4.82996,-10.25 -6.05374,-10.25 -1.27164,0 -3.77865,4.83215 -9.72787,18.75 -8.25516,19.31247 -31.26697,73.4474 -56.21716,132.25 -7.8178,18.425 -15.83856,37.325 -17.8239,42 -5.8645,13.8095 -10.05248,18.78104 -18.48554,21.94411 -4.24251,1.59128 -38.04181,1.41587 -37.40255,-0.19411 z m 565.32472,-0.33179 c -0.7934,-2.06763 -0.7934,-265.76879 0,-267.83642 0.5479,-1.42778 10.3331,-1.58179 100.5,-1.58179 h 99.893 v 20 20 h -75.5657 c -50.1771,0 -76.2157,0.3478 -77.5,1.03518 -1.8912,1.0121 -1.9343,3.11527 -1.9343,94.3 0,71.20597 0.2838,93.54864 1.2,94.46482 0.9126,0.91263 19.7111,1.2 78.5,1.2 h 77.3 v 20 20 h -100.893 c -91.0788,0 -100.9521,-0.15387 -101.5,-1.58179 z m 95.8393,-121.69768 c -0.2701,-0.70371 -0.3685,-10.04121 -0.2187,-20.75 l 0.2724,-19.47053 21.8736,-0.26985 c 15.2927,-0.18866 22.2877,0.0738 23.25,0.87245 1.8563,1.54058 2.0177,37.85614 0.1764,39.6974 -1.7774,1.77744 -44.67,1.70228 -45.3537,-0.0795 z M 52.009552,342.28061 c -0.30925,-1.27881 -0.43881,-52.72511 -0.2879,-114.32511 l 0.27438,-112 23.25,-0.26843 23.25,-0.26843 v 91.3273 c 0,73.44366 0.25504,91.67609 1.30241,93.10846 1.216428,1.66356 3.609678,1.7536 36.249998,1.36369 34.02015,-0.4064 35.21112,-0.48809 44.8779,-3.07817 35.56745,-9.52983 58.0818,-32.7229 66.18906,-68.18442 2.43481,-10.64994 2.4075,-32.68888 -0.0545,-44 -4.73273,-21.74332 -16.50536,-40.76862 -32.81238,-53.02682 -8.03207,-6.03782 -22.24793,-12.84898 -32.17643,-15.4165 -11.64048,-3.01025 -25.89078,-4.05491 -55.32604,-4.05584 l -26.25002,-8.4e-4 V 92.364889 71.274279 l 38.25,0.48786 c 28.55418,0.36419 40.16326,0.87215 45.79779,2.00389 59.69853,11.99091 99.3625,49.653551 111.62685,105.994471 2.54087,11.67247 2.53224,43.75528 -0.0149,55.46318 -7.90994,36.35758 -27.13252,64.8323 -57.15971,84.67162 -16.70063,11.0343 -32.33492,17.1626 -55.5,21.75478 -9.75445,1.93369 -14.77535,2.11252 -70.7121,2.51856 l -60.212088,0.43707 -0.56229,-2.3251 z m 240.142698,1.42766 c -0.31861,-0.51553 25.16193,-59.8458 56.62343,-131.84505 52.77243,-120.769021 57.53199,-131.229401 61.45393,-135.061131 5.79025,-5.65706 11.27233,-7.35172 23.69456,-7.32463 7.58161,0.0165 11.06085,0.4728 14.07186,1.84538 5.90744,2.69293 10.29352,6.79168 13.01512,12.16249 1.32923,2.62312 27.43263,62.028991 58.00754,132.013041 35.33964,80.89022 55.24262,127.59185 54.63511,128.19936 -0.56491,0.56491 -8.25407,0.80289 -18.8067,0.58207 -29.16201,-0.61024 -29.74705,-1.1226 -46.61633,-40.82447 -6.42656,-15.1249 -25.8349,-60.79983 -43.12964,-101.49983 -19.07922,-44.89941 -31.9656,-74 -32.76884,-74 -0.80647,0 -18.17922,39.66682 -44.45362,101.5 -46.49655,109.42324 -45.5142,107.4244 -55.11911,112.15425 -4.34552,2.1399 -6.3108,2.37603 -22.39577,2.69079 -10.29531,0.20147 -17.8733,-0.045 -18.21154,-0.59227 z m 339.01045,0.0806 c -0.36667,-0.3667 -0.66667,-51.8917 -0.66667,-114.50004 0,-62.60833 -0.1125,-113.93372 -0.25,-114.05642 -0.1375,-0.1227 -19.6,-0.4602 -43.25,-0.75 l -43,-0.52691 v -21.000001 -21 h 110.5 110.5 l 0.28398,19 c 0.15618,10.450001 0.0363,20.007671 -0.26636,21.239281 l -0.55034,2.23927 -42.73364,0.26073 -42.73364,0.26072 -0.25429,113.40271 c -0.18338,81.78147 -0.56608,113.77838 -1.37244,114.75 -0.87618,1.05572 -5.92485,1.34729 -23.32905,1.34729 -12.21599,0 -22.51089,-0.3 -22.87755,-0.66667 z m 103.33333,-0.67677 c 0,-1.1835 98.40114,-227.51857 111.0701,-255.475271 3.68679,-8.13567 7.82686,-12.66713 14.4299,-15.79402 4.27103,-2.02257 6.53083,-2.36777 15.5,-2.36777 8.96917,0 11.22897,0.3452 15.5,2.36777 6.63684,3.1429 10.74537,7.66334 14.50465,15.95887 13.03995,28.774991 110.99542,254.075091 110.99542,255.292361 0,1.35641 -2.3291,1.50311 -18.75003,1.181 -17.9637,-0.35238 -18.9596,-0.47819 -23.75,-3.00042 -5.8379,-3.07383 -9.4948,-6.7442 -12.2739,-12.31912 -1.0967,-2.2 -20.5065,-47.58629 -43.13296,-100.85843 -22.62638,-53.27214 -41.60906,-97.73699 -42.18373,-98.81077 -0.57467,-1.07378 -1.48986,-1.804 -2.03375,-1.6227 -0.54389,0.1813 -20.29012,45.74679 -43.88051,101.25665 -23.59039,55.50985 -44.16985,102.74572 -45.73214,104.96859 -1.82522,2.59697 -4.94423,5.11837 -8.72604,7.05412 -5.79617,2.96681 -6.1561,3.01756 -23.71126,3.34352 -15.35324,0.28508 -17.82575,0.12219 -17.82575,-1.17438 z M 3.4960291,48.455499 v -21 H 26.996029 50.496032 v 21 21 H 26.996029 3.4960291 Z"
       id="path297" />
    <path
       style="fill:#fab614"
       d="m 182.85422,662.50157 c -5.31003,-1.26626 -10.101,-4.90689 -13.30076,-10.10716 -1.68159,-2.73292 -3.05743,-5.208 -3.05743,-5.50017 0,-0.29217 -1.51348,-3.77291 -3.3633,-7.73498 -1.84981,-3.96207 -4.81903,-10.57876 -6.59826,-14.70376 -1.77922,-4.125 -4.27858,-9.75 -5.55412,-12.5 -1.27554,-2.75 -7.58101,-17.15 -14.01216,-32 -6.43115,-14.85 -15.97561,-36.675 -21.20992,-48.5 -5.23431,-11.825 -9.97491,-22.85 -10.53468,-24.5 -0.55976,-1.65 -1.36002,-3.45 -1.77836,-4 -0.41834,-0.55 -2.55112,-5.275 -4.739518,-10.5 -2.1884,-5.225 -7.34904,-17.15 -11.46809,-26.5 -4.11905,-9.35 -9.17449,-20.825 -11.23431,-25.5 -2.05983,-4.675 -4.59162,-10.38781 -5.62621,-12.69514 -1.03459,-2.30732 -1.88107,-4.47315 -1.88107,-4.81295 0,-0.33979 -1.0964,-2.95198 -2.43646,-5.80486 -6.21501,-13.23135 -10.56354,-23.03921 -10.56354,-23.82547 0,-0.47387 7.22787,-0.86158 16.06193,-0.86158 15.14503,0 16.36993,0.14571 21.4576,2.55256 3.09293,1.4632 6.70308,4.20331 8.459138,6.4205 3.54384,4.47447 1.98055,1.00997 21.44559,47.52694 3.68236,8.8 8.01832,18.80303 9.63547,22.22896 1.61715,3.42593 2.94027,6.51929 2.94027,6.87414 0,0.55087 5.14244,12.59377 8.06917,18.8969 0.51076,1.1 2.8961,6.725 5.30074,12.5 2.40465,5.775 7.80514,18.51927 12.00109,28.32059 4.19595,9.80133 7.629,18.09106 7.629,18.42162 0,0.33057 2.23137,5.5863 4.9586,11.67941 2.72723,6.09311 7.79885,17.82838 11.27028,26.07838 8.97273,21.32409 9.08497,21.29574 19.79724,-5 4.34811,-10.67343 4.2563,-10.45891 8.91042,-20.81977 1.6849,-3.75087 3.06346,-6.99575 3.06346,-7.21085 0,-0.32799 14.32399,-34.33831 18.51841,-43.96938 2.70337,-6.20737 8.27296,-19.23139 10.90481,-25.5 1.50096,-3.575 3.35021,-7.85 4.10946,-9.5 0.75925,-1.65 3.03874,-7.05 5.06553,-12 2.02679,-4.95 4.66661,-11.25 5.86627,-14 1.19966,-2.75 2.78634,-6.575 3.52596,-8.5 0.73962,-1.925 1.66631,-3.95 2.05931,-4.5 0.39301,-0.55 2.97352,-6.62749 5.73448,-13.50554 10.67703,-26.59842 13.90825,-31.46106 23.59545,-35.50864 5.00481,-2.09114 27.58843,-2.05676 33.7756,0.0514 9.34447,3.18398 9.63471,3.70633 33.31751,59.96276 3.70462,8.8 7.54427,17.8 8.53255,20 1.7983,4.00316 3.10585,7.07738 24.03097,56.5 6.17094,14.575 15.04562,35.5 19.72153,46.5 4.6759,11 9.35861,22.025 10.40601,24.5 2.85999,6.75815 3.36734,7.474 5.52699,7.79841 2.12646,0.31943 4.24414,-3.71956 13.26418,-25.29841 2.29902,-5.5 4.77793,-11.35 5.5087,-13 1.41218,-3.1886 8.36582,-19.57522 26.52177,-62.5 6.16481,-14.575 13.14995,-31 15.52255,-36.5 2.37259,-5.5 8.82303,-20.575 14.33431,-33.5 15.19445,-35.63385 15.48826,-36.214 20.33658,-40.15523 6.3901,-5.19454 9.33489,-5.84477 26.47029,-5.84477 17.79397,0 17.2231,-0.46109 12.30371,9.93764 -1.67501,3.5407 -6.42218,14.3407 -10.54924,24 -9.22583,21.59281 -8.24961,19.39224 -14.33766,32.31944 -2.78631,5.91641 -5.06603,11.15339 -5.06603,11.63774 0,0.48436 -1.30876,3.74368 -2.90835,7.24293 -5.5714,12.18792 -24.09165,54.64535 -24.09165,55.22978 0,0.32374 -1.52344,3.86099 -3.38542,7.86056 -1.86199,3.99956 -5.51011,12.22193 -8.10694,18.27193 -4.18398,9.74769 -7.54692,17.45128 -13.5328,31 -0.97197,2.2 -4.53322,10.3 -7.91388,18 -6.06126,13.80549 -9.56677,21.71142 -14.4106,32.5 -1.35816,3.025 -3.19669,7.3 -4.08562,9.5 -1.845,4.56614 -8.1058,10.21102 -13.43853,12.1165 -2.3342,0.83406 -8.99718,1.31135 -18.70061,1.33961 l -15.0744,0.0439 -2.62897,-5.75 c -1.44593,-3.1625 -3.56184,-8 -4.70202,-10.75 -1.14018,-2.75 -2.71934,-6.35 -3.50925,-8 -0.78991,-1.65 -3.9494,-8.85 -7.0211,-16 -3.0717,-7.15 -6.20801,-14.35 -6.96958,-16 -2.0587,-4.46034 -17.68837,-40.6242 -25.71531,-59.5 -3.85915,-9.075 -8.04512,-18.525 -9.30217,-21 -1.25704,-2.475 -4.76083,-10.35 -7.7862,-17.5 -3.02537,-7.15 -9.06813,-21.1 -13.42836,-31 -4.36023,-9.9 -9.22102,-21.00782 -10.80176,-24.68405 -2.70296,-6.28613 -4.93108,-8.41971 -7.25107,-6.94338 -1.03817,0.66064 -3.46095,6.08297 -34.23839,76.62743 -10.55808,24.2 -22.26395,50.975 -26.01305,59.5 -3.7491,8.525 -12.28563,28.1 -18.97006,43.5 -6.68443,15.4 -12.72591,28.9 -13.42552,30 -0.69961,1.1 -1.57677,3.2375 -1.94925,4.75 l -0.67724,2.75 -14.73095,-0.10236 c -8.10202,-0.0563 -16.14476,-0.43951 -17.87276,-0.85157 z m 856.64188,-1.04774 c -21.0361,-0.49084 -21.612,-0.5607 -26.6927,-3.2378 -3.3613,-1.77116 -7.3753,-5.29736 -11.3815,-9.99833 -3.40383,-3.99421 -7.36943,-8.6122 -8.81243,-10.2622 -1.4429,-1.65 -4.1521,-5.025 -6.0202,-7.5 -1.8682,-2.475 -4.1252,-5.175 -5.0155,-6 -0.8904,-0.825 -4.7595,-5.44374 -8.5982,-10.26388 -11.9218,-14.96985 -13.815,-17.28348 -19.5201,-23.85448 -3.0474,-3.5099 -6.7872,-8.07482 -8.3106,-10.14426 -2.5943,-3.52411 -21.58684,-26.39237 -30.71878,-36.98738 l -4.09406,-4.75 h -17.35898 c -12.78905,0 -17.57197,0.32908 -18.168,1.25 -0.44496,0.6875 -1.03402,28.25 -1.30902,61.25 l -0.5,60 -21.25,0.26989 -21.25,0.26989 V 526.97539 392.4555 h 21.5 21.5 v 51.4349 c 0,30.99956 0.38747,52.45403 0.97525,54 l 0.97525,2.5651 h 16.44296 c 9.04363,0 17.13141,-0.26418 17.97285,-0.58707 1.45683,-0.55904 12.7649,-12.67044 24.63369,-26.38367 3.02504,-3.4951 6.22984,-7.06899 7.12184,-7.94199 0.8921,-0.873 3.8171,-4.09781 6.5,-7.16626 10.2494,-11.72185 28.8576,-32.59008 32.4766,-36.42101 5.2265,-5.53256 8.4723,-9.12539 15.1438,-16.76263 4.0425,-4.62779 7.56773,-7.48566 11.90973,-9.65541 l 6.1675,-3.08196 h 21.3403 c 11.7372,0 21.3403,0.38097 21.3403,0.8466 0,0.46563 -1.6875,2.57218 -3.75,4.68123 -2.0625,2.10905 -4.6978,5.10276 -5.8561,6.65268 -1.1584,1.54993 -5.0479,6.08087 -8.6434,10.06877 -3.5956,3.9879 -10.2683,11.52572 -14.8283,16.75072 -8.2767,9.48359 -10.1916,11.63516 -19.5798,22 -2.74,3.025 -7.66213,8.65 -10.93803,12.5 -9.9196,11.65788 -10.8451,12.72571 -12.4744,14.39321 -0.8635,0.88374 -6.0231,6.78179 -11.4658,13.10679 -5.4427,6.325 -12.4987,14.32896 -15.68,17.78659 -3.4464,3.74569 -5.7781,7.18119 -5.769,8.5 0.01,1.29142 3.4454,6.32472 8.25,12.08339 4.5292,5.42848 15.5509,18.70348 24.4928,29.5 8.9418,10.79651 18.4489,22.10502 21.12693,25.13002 8.0634,9.10824 28.4859,33.97948 30.4572,37.09174 1.0131,1.59954 2.172,2.90826 2.5753,2.90826 0.4034,0 3.1676,3.0375 6.1428,6.75 2.9751,3.7125 8.4987,10.35 12.2745,14.75 9.3703,10.91919 10.9476,13.20678 9.4089,13.64545 -0.684,0.195 -10.9186,0.1288 -22.7436,-0.14712 z m -515.00007,-1.0119 c 0,-0.55746 0.4221,-1.79496 0.93801,-2.75 1.13711,-2.105 4.13435,-8.84426 11.00136,-24.73643 4.92626,-11.40074 8.42997,-19.43247 12.86889,-29.5 1.09127,-2.475 4.75012,-10.8 8.13078,-18.5 7.23068,-16.46904 10.77796,-24.44239 15.12631,-34 1.7516,-3.85 3.76219,-8.62708 4.46796,-10.61574 1.15566,-3.25627 17.88823,-41.39508 22.57257,-51.44998 1.04177,-2.23615 1.89412,-4.38646 1.89412,-4.77846 0,-0.392 1.5022,-3.96242 3.33822,-7.93427 1.83602,-3.97185 4.59393,-10.14655 6.12868,-13.72155 1.53476,-3.575 3.58249,-8.3 4.55052,-10.5 0.96804,-2.2 3.829,-8.77425 6.35771,-14.60945 2.5287,-5.8352 5.276,-11.9102 6.1051,-13.5 0.82909,-1.5898 1.51022,-3.23658 1.51361,-3.65951 0.003,-0.42293 2.28962,-5.50305 5.08051,-11.28916 4.66012,-9.66139 5.53086,-10.82312 10.66639,-14.23103 l 5.59202,-3.71085 h 12.08362 c 19.14066,0 22.48202,2.66395 32.61153,26 0.47747,1.1 4.20932,9.65 8.29299,19 4.08366,9.35 11.04194,25.325 15.46284,35.5 20.27383,46.66165 35.14516,80.63078 42.46556,97 1.3528,3.025 2.69794,6.175 2.9892,7 0.29127,0.825 3.90764,9.15 8.03638,18.5 15.69848,35.55092 28.72512,65.81561 28.72512,66.73684 0,0.58788 -6.85115,0.81422 -17.75,0.5864 -26.94292,-0.56319 -28.2633,-1.64521 -41.2742,-33.82324 -1.22313,-3.025 -3.02813,-7.3 -4.01111,-9.5 -0.98298,-2.2 -3.42622,-7.825 -5.42942,-12.5 -2.0032,-4.675 -4.7358,-10.975 -6.07244,-14 -1.33665,-3.025 -6.27046,-14.725 -10.96402,-26 -4.69357,-11.275 -9.17772,-21.85 -9.96478,-23.5 -0.78707,-1.65 -5.09579,-11.775 -9.57494,-22.5 -4.47915,-10.725 -10.4098,-24.675 -13.17922,-31 -2.76942,-6.325 -6.30557,-14.65 -7.85811,-18.5 -8.39484,-20.81756 -10.57206,-25 -13.01407,-25 -2.59075,0 -2.22305,-0.78747 -26.84868,57.5 -6.15773,14.575 -12.48,29.425 -14.04951,33 -1.5695,3.575 -4.04785,9.425 -5.50745,13 -1.4596,3.575 -3.47276,8.3 -4.4737,10.5 -1.00094,2.2 -4.8543,11.2 -8.56303,20 -6.51716,15.46383 -21.73085,51.35267 -27.26679,64.32195 -3.59287,8.41716 -7.49658,12.94236 -13.62767,15.79728 -4.67109,2.17508 -6.35197,2.362 -21.32086,2.371 -10.31812,0.006 -16.25,-0.36022 -16.25,-1.0038 z m 564.81377,-127.2316 c -0.1025,-70.54016 -0.2601,-130.27983 -0.3502,-132.75483 -0.09,-2.475 0.024,-5.2875 0.2537,-6.25 0.3942,-1.65206 5.9544,-1.75 99.3502,-1.75 h 98.9326 v 19 19 h -75.5657 c -50.1771,0 -76.2157,0.3478 -77.5,1.03518 -1.8914,1.01223 -1.9343,3.12748 -1.9343,95.37756 0,77.80567 0.2357,94.53802 1.3449,95.45857 0.9583,0.79526 23.4574,1.18988 78.25,1.37244 l 76.9051,0.25625 v 18.5 18.5 l -99.75,0.25483 -99.75,0.25483 z m 95.6016,5.3285 c -0.2284,-0.22916 -0.4153,-8.89166 -0.4153,-19.25 V 500.4555 h 21.9369 21.9369 l 0.3131,18.25 c 0.1722,10.0375 0.088,18.55433 -0.1869,18.9263 -0.5355,0.72434 -42.8882,1.60574 -43.5847,0.90703 z M 52.009552,342.28061 c -0.30925,-1.27881 -0.43881,-52.72511 -0.2879,-114.32511 l 0.27438,-112 23.25,-0.26843 23.25,-0.26843 v 91.3273 c 0,73.44366 0.25504,91.67609 1.30241,93.10846 1.216428,1.66356 3.609678,1.7536 36.249998,1.36369 34.02015,-0.4064 35.21112,-0.48809 44.8779,-3.07817 35.56745,-9.52983 58.0818,-32.7229 66.18906,-68.18442 2.43481,-10.64994 2.4075,-32.68888 -0.0545,-44 -4.73273,-21.74332 -16.50536,-40.76862 -32.81238,-53.02682 -8.03207,-6.03782 -22.24793,-12.84898 -32.17643,-15.4165 -11.64048,-3.01025 -25.89078,-4.05491 -55.32604,-4.05584 l -26.25002,-8.4e-4 V 92.364889 71.274279 l 38.25,0.48786 c 28.55418,0.36419 40.16326,0.87215 45.79779,2.00389 59.69853,11.99091 99.3625,49.653551 111.62685,105.994471 2.54087,11.67247 2.53224,43.75528 -0.0149,55.46318 -7.90994,36.35758 -27.13252,64.8323 -57.15971,84.67162 -16.70063,11.0343 -32.33492,17.1626 -55.5,21.75478 -9.75445,1.93369 -14.77535,2.11252 -70.7121,2.51856 l -60.212088,0.43707 -0.56229,-2.3251 z m 240.142698,1.42766 c -0.31861,-0.51553 25.16193,-59.8458 56.62343,-131.84505 52.77243,-120.769021 57.53199,-131.229401 61.45393,-135.061131 5.79025,-5.65706 11.27233,-7.35172 23.69456,-7.32463 7.58161,0.0165 11.06085,0.4728 14.07186,1.84538 5.90744,2.69293 10.29352,6.79168 13.01512,12.16249 1.32923,2.62312 27.43263,62.028991 58.00754,132.013041 35.33964,80.89022 55.24262,127.59185 54.63511,128.19936 -0.56491,0.56491 -8.25407,0.80289 -18.8067,0.58207 -29.16201,-0.61024 -29.74705,-1.1226 -46.61633,-40.82447 -6.42656,-15.1249 -25.8349,-60.79983 -43.12964,-101.49983 -19.07922,-44.89941 -31.9656,-74 -32.76884,-74 -0.80647,0 -18.17922,39.66682 -44.45362,101.5 -46.49655,109.42324 -45.5142,107.4244 -55.11911,112.15425 -4.34552,2.1399 -6.3108,2.37603 -22.39577,2.69079 -10.29531,0.20147 -17.8733,-0.045 -18.21154,-0.59227 z m 339.01045,0.0806 c -0.36667,-0.3667 -0.66667,-51.8917 -0.66667,-114.50004 0,-62.60833 -0.1125,-113.93372 -0.25,-114.05642 -0.1375,-0.1227 -19.6,-0.4602 -43.25,-0.75 l -43,-0.52691 v -21.000001 -21 h 110.5 110.5 l 0.28398,19 c 0.15618,10.450001 0.0363,20.007671 -0.26636,21.239281 l -0.55034,2.23927 -42.73364,0.26073 -42.73364,0.26072 -0.25429,113.40271 c -0.18338,81.78147 -0.56608,113.77838 -1.37244,114.75 -0.87618,1.05572 -5.92485,1.34729 -23.32905,1.34729 -12.21599,0 -22.51089,-0.3 -22.87755,-0.66667 z m 103.33333,-0.67677 c 0,-1.1835 98.40114,-227.51857 111.0701,-255.475271 3.68679,-8.13567 7.82686,-12.66713 14.4299,-15.79402 4.27103,-2.02257 6.53083,-2.36777 15.5,-2.36777 8.96917,0 11.22897,0.3452 15.5,2.36777 6.63684,3.1429 10.74537,7.66334 14.50465,15.95887 13.03995,28.774991 110.99542,254.075091 110.99542,255.292361 0,1.35641 -2.3291,1.50311 -18.75003,1.181 -17.9637,-0.35238 -18.9596,-0.47819 -23.75,-3.00042 -5.8379,-3.07383 -9.4948,-6.7442 -12.2739,-12.31912 -1.0967,-2.2 -20.5065,-47.58629 -43.13296,-100.85843 -22.62638,-53.27214 -41.60906,-97.73699 -42.18373,-98.81077 -0.57467,-1.07378 -1.48986,-1.804 -2.03375,-1.6227 -0.54389,0.1813 -20.29012,45.74679 -43.88051,101.25665 -23.59039,55.50985 -44.16985,102.74572 -45.73214,104.96859 -1.82522,2.59697 -4.94423,5.11837 -8.72604,7.05412 -5.79617,2.96681 -6.1561,3.01756 -23.71126,3.34352 -15.35324,0.28508 -17.82575,0.12219 -17.82575,-1.17438 z M 3.4960291,48.455499 v -21 H 26.996029 50.496032 v 21 21 H 26.996029 3.4960291 Z"
       id="path295" />
    <path
       style="fill:#595959"
       d="m 52.009552,342.28061 c -0.30925,-1.27881 -0.43881,-52.72511 -0.2879,-114.32511 l 0.27438,-112 23.25,-0.26843 23.25,-0.26843 v 91.3273 c 0,73.44366 0.25504,91.67609 1.30241,93.10846 1.216428,1.66356 3.609678,1.7536 36.249998,1.36369 34.02015,-0.4064 35.21112,-0.48809 44.8779,-3.07817 35.56745,-9.52983 58.0818,-32.7229 66.18906,-68.18442 2.43481,-10.64994 2.4075,-32.68888 -0.0545,-44 -4.73273,-21.74332 -16.50536,-40.76862 -32.81238,-53.02682 -8.03207,-6.03782 -22.24793,-12.84898 -32.17643,-15.4165 -11.64048,-3.01025 -25.89078,-4.05491 -55.32604,-4.05584 l -26.25002,-8.4e-4 V 92.364889 71.274279 l 38.25,0.48786 c 28.55418,0.36419 40.16326,0.87215 45.79779,2.00389 59.69853,11.99091 99.3625,49.653551 111.62685,105.994471 2.54087,11.67247 2.53224,43.75528 -0.0149,55.46318 -7.90994,36.35758 -27.13252,64.8323 -57.15971,84.67162 -16.70063,11.0343 -32.33492,17.1626 -55.5,21.75478 -9.75445,1.93369 -14.77535,2.11252 -70.7121,2.51856 l -60.212088,0.43707 -0.56229,-2.3251 z m 240.142698,1.42766 c -0.31861,-0.51553 25.16193,-59.8458 56.62343,-131.84505 52.77243,-120.769021 57.53199,-131.229401 61.45393,-135.061131 5.79025,-5.65706 11.27233,-7.35172 23.69456,-7.32463 7.58161,0.0165 11.06085,0.4728 14.07186,1.84538 5.90744,2.69293 10.29352,6.79168 13.01512,12.16249 1.32923,2.62312 27.43263,62.028991 58.00754,132.013041 35.33964,80.89022 55.24262,127.59185 54.63511,128.19936 -0.56491,0.56491 -8.25407,0.80289 -18.8067,0.58207 -29.16201,-0.61024 -29.74705,-1.1226 -46.61633,-40.82447 -6.42656,-15.1249 -25.8349,-60.79983 -43.12964,-101.49983 -19.07922,-44.89941 -31.9656,-74 -32.76884,-74 -0.80647,0 -18.17922,39.66682 -44.45362,101.5 -46.49655,109.42324 -45.5142,107.4244 -55.11911,112.15425 -4.34552,2.1399 -6.3108,2.37603 -22.39577,2.69079 -10.29531,0.20147 -17.8733,-0.045 -18.21154,-0.59227 z m 339.01045,0.0806 c -0.36667,-0.3667 -0.66667,-51.8917 -0.66667,-114.50004 0,-62.60833 -0.1125,-113.93372 -0.25,-114.05642 -0.1375,-0.1227 -19.6,-0.4602 -43.25,-0.75 l -43,-0.52691 v -21.000001 -21 h 110.5 110.5 l 0.28398,19 c 0.15618,10.450001 0.0363,20.007671 -0.26636,21.239281 l -0.55034,2.23927 -42.73364,0.26073 -42.73364,0.26072 -0.25429,113.40271 c -0.18338,81.78147 -0.56608,113.77838 -1.37244,114.75 -0.87618,1.05572 -5.92485,1.34729 -23.32905,1.34729 -12.21599,0 -22.51089,-0.3 -22.87755,-0.66667 z m 103.33333,-0.67677 c 0,-1.1835 98.40114,-227.51857 111.0701,-255.475271 3.68679,-8.13567 7.82686,-12.66713 14.4299,-15.79402 4.27103,-2.02257 6.53083,-2.36777 15.5,-2.36777 8.96917,0 11.22897,0.3452 15.5,2.36777 6.63684,3.1429 10.74537,7.66334 14.50465,15.95887 13.03995,28.774991 110.99542,254.075091 110.99542,255.292361 0,1.35641 -2.3291,1.50311 -18.75003,1.181 -17.9637,-0.35238 -18.9596,-0.47819 -23.75,-3.00042 -5.8379,-3.07383 -9.4948,-6.7442 -12.2739,-12.31912 -1.0967,-2.2 -20.5065,-47.58629 -43.13296,-100.85843 -22.62638,-53.27214 -41.60906,-97.73699 -42.18373,-98.81077 -0.57467,-1.07378 -1.48986,-1.804 -2.03375,-1.6227 -0.54389,0.1813 -20.29012,45.74679 -43.88051,101.25665 -23.59039,55.50985 -44.16985,102.74572 -45.73214,104.96859 -1.82522,2.59697 -4.94423,5.11837 -8.72604,7.05412 -5.79617,2.96681 -6.1561,3.01756 -23.71126,3.34352 -15.35324,0.28508 -17.82575,0.12219 -17.82575,-1.17438 z M 3.4960291,48.455499 v -21 H 26.996029 50.496032 v 21 21 H 26.996029 3.4960291 Z"
       id="path293" />
    <path
       style="fill:#3c3c3c"
       d="M 53.496032,229.98137 V 116.4555 h 22 22 v 91.41821 c 0,50.28002 0.27314,92.13002 0.60699,93 0.53661,1.3984 4.449588,1.58163 33.749998,1.58042 35.8173,-0.001 42.86284,-0.67313 57.06259,-5.43983 15.34507,-5.15117 25.91548,-11.9155 37.22483,-23.82131 12.27424,-12.92157 19.47021,-27.90028 22.93374,-47.73749 2.8671,-16.42113 0.60954,-40.60038 -5.08853,-54.5 -9.74606,-23.77412 -25.38039,-40.09965 -47.48962,-49.58912 -17.44934,-7.48942 -27.97137,-8.89287 -66.75,-8.90329 l -28.25,-0.008 V 92.353739 72.252379 l 36.75,0.44966 c 29.4084,0.35982 38.44806,0.79276 45.25,2.16717 18.27303,3.69228 27.61403,6.8955 43.00348,14.74678 37.16206,18.959081 61.04455,51.371161 69.14433,93.839111 1.93224,10.13091 1.63427,39.7395 -0.50318,50 -11.65772,55.9612 -50.79017,94.4138 -107.93416,106.059 -14.58465,2.97216 -31.71638,3.7495 -85.46047,3.87767 l -48.249998,0.11508 z m 240.616598,112.6628 c -0.61364,-0.9929 107.703,-250.502411 112.71532,-259.641981 2.69452,-4.91323 9.4079,-10.13021 14.96013,-11.62554 2.37678,-0.64012 8.34205,-0.95253 13.70795,-0.7179 11.06445,0.48381 15.84454,2.44546 21.14255,8.67647 2.43018,2.85814 18.89345,39.530901 59.61009,132.784491 30.93895,70.85969 56.25145,129.46387 56.25,130.23152 -0.002,1.16222 -2.93871,1.30323 -17.5527,0.84285 -16.48969,-0.51946 -17.88602,-0.71723 -23.11058,-3.27337 -3.70721,-1.81377 -6.56445,-4.14479 -8.57259,-6.99375 -1.65662,-2.35028 -22.07706,-49.20533 -45.37875,-104.12235 -23.30169,-54.91701 -42.74115,-100.49733 -43.19881,-101.28959 -1.36849,-2.36906 -2.97414,-2.32337 -4.51196,0.12839 -0.79762,1.27165 -20.68829,47.64438 -44.20148,103.05052 -46.20468,108.87603 -44.66161,105.7445 -54.1808,109.95529 -3.46719,1.5337 -7.64333,2.03911 -20.67549,2.5022 -11.27135,0.40052 -16.53897,0.24337 -17.00288,-0.50725 z m 337.84916,-0.43867 c -0.2593,-0.6875 -0.58268,-52.325 -0.71861,-114.75 l -0.24715,-113.5 -43,-0.5 -43,-0.5 -0.27071,-20.250001 -0.2707,-20.25 h 109.5207 109.52071 v 20.5 20.500001 h -42.46482 c -40.96026,0 -42.50149,0.0685 -43.5,1.93426 -0.69607,1.30062 -1.03518,38.97327 -1.03518,115 V 343.4555 h -22.03138 c -16.707,0 -22.14533,-0.30209 -22.50286,-1.25 z m 104.21,0.53439 c -0.58101,-0.94011 110.7602,-256.084971 114.07328,-261.405541 2.63243,-4.22751 8.32523,-8.25065 13.84229,-9.78246 5.81631,-1.61489 19.30865,-1.34981 24.69398,0.48515 5.28807,1.80183 11.51675,7.37373 13.9303,12.46143 0.90199,1.90137 23.76149,54.082031 50.79893,115.957031 27.0374,61.875 52.00803,119.01514 55.49033,126.97808 3.4822,7.96295 6.0775,14.88871 5.7674,15.39058 -0.3251,0.52589 -7.8883,0.69258 -17.85143,0.39343 -15.1319,-0.45435 -17.8553,-0.79403 -21.8428,-2.72433 -9.5866,-4.64081 -8.6554,-2.74533 -54.9926,-111.9383 -23.60301,-55.62025 -43.53458,-101.64229 -44.29239,-102.27121 -0.91746,-0.76143 -1.71154,-0.80976 -2.37664,-0.14466 -0.54935,0.54935 -20.36845,46.63278 -44.04244,102.40762 -23.67399,55.77483 -44.26249,102.98379 -45.75223,104.90879 -1.48974,1.925 -5.3258,4.81755 -8.52458,6.42789 -5.59468,2.81648 -6.43636,2.94175 -22.12134,3.29241 -8.96795,0.20049 -16.52798,0.004 -16.80006,-0.43591 z M 4.4960291,48.455499 v -20 H 26.996029 49.496032 v 20 20 H 26.996029 4.4960291 Z"
       id="path291" />
  </g>
</svg>
